<svg xmlns="http://www.w3.org/2000/svg" width="48" height="48" viewBox="0 0 48 48" fill="none">
  <path d="M0 24C0 10.7452 10.7452 0 24 0C37.2548 0 48 10.7452 48 24C48 37.2548 37.2548 48 24 48C10.7452 48 0 37.2548 0 24Z" fill="url(#paint0_linear_1066_3686)"/>
  <path d="M22.6638 17.4485C25.3541 14.4235 27.62 11.2739 29.4615 8L22.345 8C21.159 10.1443 19.808 12.193 18.292 14.1458C16.7518 16.1179 15.0356 18.042 13.1432 19.9183C11.2509 21.7946 9.20315 23.6614 7 25.5185L9.24009 28.8689H22.2695L23.987 26.8699L25.3674 25.2888H14.3841C17.4004 22.8902 20.1603 20.2768 22.6638 17.4485Z" fill="white"/>
  <path d="M25.8524 29.8005C23.1621 32.8256 20.8962 35.975 19.0547 39.249H26.1712C27.3572 37.1046 28.7082 35.056 30.2242 33.1031C31.7644 31.1311 33.4806 29.207 35.3729 27.3307C37.2653 25.4544 39.313 23.5877 41.5162 21.7305L39.2761 18.3801L26.2736 18.6961L23.1488 21.9602L34.1321 21.9602C31.1158 24.3588 28.3559 26.9723 25.8524 29.8005Z" fill="white"/>
  <defs>
    <linearGradient id="paint0_linear_1066_3686" x1="0" y1="24" x2="48" y2="24" gradientUnits="userSpaceOnUse">
      <stop stop-color="#07D494"/><stop offset="1" stop-color="#00C2B2"/>
    </linearGradient>
  </defs>
</svg>
