<?xml version="1.0" standalone="no"?>
<svg width="481px" height="159px" viewBox="57 292 481 159 " xmlns="http://www.w3.org/2000/svg" xmlns:xlink="http://www.w3.org/1999/xlink">
<title>generated by pstoedit</title>
<!-- generated by pstoedit version:4.3 -->
<g xml:space='preserve'>
<g fill="none" fill-rule="nonzero" stroke-width="0" stroke-linejoin="miter" stroke-linecap="butt" stroke-miterlimit="10" >
	<path d="
	M 57.2031 291.914 
	L 538.074 291.914 
	L 538.074 450.195 
	L 57.2031 450.195 
	Z 
	M 76.7305 292.199 
	C 73.5547 292.605 70.4609 293.687 67.7617 295.414 
	C 63.5156 298.074 60.2227 302.23 58.6406 306.988 
	C 57.6992 309.648 57.4297 312.492 57.4453 315.301 
	C 57.4453 350.977 57.4453 386.652 57.4453 422.328 
	C 57.4883 425.543 57.2695 428.789 57.8438 431.973 
	C 58.3672 434.703 59.3711 437.352 60.875 439.695 
	C 63.7773 444.32 68.457 447.809 73.7422 449.195 
	C 76.1875 449.898 78.7539 450.012 81.2852 449.992 
	C 225.52 449.992 369.75 449.992 513.984 449.992 
	C 516.23 450.016 518.496 449.91 520.691 449.395 
	C 525.824 448.23 530.488 445.133 533.551 440.852 
	C 535.926 437.629 537.332 433.715 537.664 429.727 
	C 537.773 428.008 537.715 426.281 537.73 424.559 
	C 537.73 388.254 537.73 351.949 537.73 315.648 
	C 537.883 311.719 537.223 307.711 535.41 304.199 
	C 532.34 297.953 526.125 293.348 519.23 292.324 
	C 516.879 291.891 514.473 292.062 512.094 292.027 
	C 368.438 292.023 224.781 292.031 81.125 292.023 
	C 79.6602 292.031 78.1875 292.008 76.7305 292.199 
	"/>
</g>
<g fill="none" fill-rule="nonzero" stroke-width="0" stroke-linejoin="miter" stroke-linecap="butt" stroke-miterlimit="10" >
	<path d="
	M 76.7305 292.199 
	C 78.1875 292.008 79.6602 292.031 81.125 292.023 
	C 224.781 292.031 368.438 292.023 512.094 292.027 
	C 514.473 292.062 516.879 291.891 519.23 292.324 
	C 526.125 293.348 532.34 297.953 535.41 304.199 
	C 537.223 307.711 537.883 311.719 537.73 315.648 
	C 537.73 351.949 537.73 388.254 537.73 424.559 
	C 537.715 426.281 537.773 428.008 537.664 429.727 
	C 537.332 433.715 535.926 437.629 533.551 440.852 
	C 530.488 445.133 525.824 448.23 520.691 449.395 
	C 518.496 449.91 516.23 450.016 513.984 449.992 
	C 369.75 449.992 225.52 449.992 81.2852 449.992 
	C 78.7539 450.012 76.1875 449.898 73.7422 449.195 
	C 68.457 447.809 63.7773 444.32 60.875 439.695 
	C 59.3711 437.352 58.3672 434.703 57.8438 431.973 
	C 57.2695 428.789 57.4883 425.543 57.4453 422.328 
	C 57.4453 386.652 57.4453 350.977 57.4453 315.301 
	C 57.4297 312.492 57.6992 309.648 58.6406 306.988 
	C 60.2227 302.23 63.5156 298.074 67.7617 295.414 
	C 70.4609 293.687 73.5547 292.605 76.7305 292.199 
	"/>
</g>
<g fill="#3a3a4a" fill-rule="nonzero" stroke-width="0" stroke-linejoin="miter" stroke-linecap="butt" stroke-miterlimit="10" >
	<path d="
	M 233.063 323.402 
	C 238.203 323.406 243.348 323.371 248.488 323.422 
	C 248.457 329.035 248.48 334.652 248.473 340.27 
	C 248.492 341.711 248.438 343.152 248.5 344.594 
	C 249.691 344.625 250.883 344.59 252.074 344.609 
	C 252.063 347.742 252.063 350.875 252.078 354.008 
	C 250.887 354.141 249.684 354.047 248.484 354.055 
	C 248.461 351.996 248.48 349.937 248.473 347.883 
	C 242.656 347.871 236.84 347.859 231.023 347.887 
	C 231.035 349.941 231.043 351.996 231.02 354.055 
	C 229.84 354.07 228.656 354.086 227.48 354.047 
	C 227.445 351.109 227.48 348.176 227.461 345.238 
	C 227.453 345.02 227.477 344.809 227.527 344.598 
	C 228.617 344.656 229.914 344.457 230.523 343.434 
	C 231.438 341.848 231.621 339.977 231.895 338.203 
	C 232.309 333.27 232.668 328.336 233.063 323.402 
	Z 
	M 236.355 326.719 
	C 236.211 329.168 235.973 331.613 235.832 334.062 
	C 235.508 337.625 235.512 341.449 233.539 344.582 
	C 237.328 344.621 241.113 344.609 244.902 344.59 
	C 244.898 338.629 244.926 332.664 244.891 326.703 
	C 242.047 326.727 239.199 326.695 236.355 326.719 
	Z 
	M 261.852 329.703 
	C 264.039 329.43 266.359 329.68 268.301 330.801 
	C 271.063 332.234 272.816 335.281 272.891 338.367 
	C 272.996 340.406 272.559 342.523 271.391 344.223 
	C 270.363 345.852 268.73 347.051 266.922 347.668 
	C 265.211 348.289 263.34 348.32 261.555 348.086 
	C 259.465 347.742 257.48 346.691 256.105 345.062 
	C 253.754 342.32 253.395 338.227 254.754 334.949 
	C 255.98 332.098 258.801 330.109 261.852 329.703 
	Z 
	M 262.219 332.809 
	C 260.844 333.086 259.547 333.844 258.734 335.004 
	C 257.602 336.488 257.379 338.48 257.66 340.277 
	C 257.895 341.883 258.844 343.383 260.219 344.25 
	C 261.637 345.137 263.422 345.281 265.027 344.93 
	C 266.809 344.516 268.305 343.152 268.945 341.449 
	C 269.801 338.988 269.41 335.883 267.344 334.129 
	C 265.984 332.852 264.008 332.551 262.219 332.809 
	Z 
	M 276.746 334.07 
	C 278.254 331.312 281.367 329.633 284.473 329.609 
	C 288.098 329.402 292.059 331.402 293.211 335.012 
	C 292.129 335.086 291.082 335.402 290.004 335.457 
	C 289.301 333.992 287.742 333.129 286.203 332.801 
	C 285.172 332.695 284.09 332.66 283.098 333.016 
	C 281.324 333.539 279.906 335.047 279.422 336.816 
	C 279.086 337.816 279.086 338.895 279.184 339.934 
	C 279.359 341.68 280.324 343.359 281.844 344.273 
	C 283.453 345.211 285.473 345.348 287.23 344.75 
	C 288.469 344.301 289.578 343.426 290.16 342.227 
	C 291.215 342.332 292.262 342.555 293.313 342.691 
	C 292.531 345.43 289.945 347.316 287.262 347.961 
	C 284.195 348.645 280.695 348.059 278.363 345.844 
	C 275.223 342.898 274.699 337.77 276.746 334.07 
	Z 
	M 379.723 329.707 
	C 381.453 329.492 383.242 329.594 384.895 330.187 
	C 386.43 330.777 387.852 331.727 388.879 333.023 
	C 391.285 336.117 391.48 340.723 389.434 344.047 
	C 387.848 346.633 384.855 348.184 381.848 348.211 
	C 378.77 348.406 375.531 347.176 373.676 344.648 
	C 371.25 341.344 371.246 336.43 373.723 333.152 
	C 375.164 331.27 377.387 330.047 379.723 329.707 
	Z 
	M 380.051 332.82 
	C 378.137 333.207 376.488 334.633 375.855 336.48 
	C 375.352 337.937 375.328 339.562 375.742 341.047 
	C 376.273 342.937 377.852 344.496 379.773 344.941 
	C 381.23 345.23 382.82 345.168 384.16 344.473 
	C 385.457 343.832 386.402 342.629 386.922 341.301 
	C 387.406 339.68 387.391 337.898 386.805 336.309 
	C 386.277 335.008 385.262 333.895 383.996 333.285 
	C 382.781 332.672 381.371 332.656 380.051 332.82 
	Z 
	M 294.27 329.937 
	C 299.551 329.937 304.832 329.937 310.113 329.937 
	C 310.105 330.98 310.117 332.023 310.109 333.066 
	C 308.051 333.086 305.992 333.082 303.938 333.066 
	C 303.84 337.992 303.922 342.926 303.898 347.852 
	C 302.758 347.891 301.613 347.879 300.477 347.859 
	C 300.465 342.93 300.5 337.996 300.457 333.07 
	C 298.395 333.074 296.328 333.098 294.27 333.059 
	C 294.254 332.016 294.254 330.977 294.27 329.937 
	Z 
	M 311.496 329.98 
	C 312.461 329.879 313.434 329.965 314.402 329.934 
	C 314.648 329.957 314.941 329.875 315.172 330.012 
	C 317.059 334.574 318.926 339.145 320.809 343.711 
	C 321.016 343.863 321.383 343.828 321.426 343.523 
	C 322.992 339.012 324.602 334.512 326.172 330 
	C 327.328 329.867 328.539 329.941 329.715 329.969 
	C 327.129 336.922 324.656 343.914 322.09 350.871 
	C 321.531 352.336 320.633 353.816 319.145 354.469 
	C 317.465 355.281 315.547 354.926 313.754 355.016 
	C 313.563 353.973 313.512 352.902 313.43 351.844 
	C 314.559 351.895 315.688 351.863 316.816 351.859 
	C 317.633 351.867 318.445 351.41 318.793 350.66 
	C 319.059 350.086 319.34 349.492 319.461 348.867 
	C 316.824 342.562 314.18 336.262 311.496 329.98 
	Z 
	M 332.797 329.934 
	C 337.273 329.937 341.75 329.934 346.227 329.937 
	C 346.848 329.941 347.469 329.906 348.086 329.973 
	C 348.039 335.91 348.098 341.848 348.059 347.781 
	L 347.984 347.855 
	C 346.875 347.895 345.766 347.871 344.656 347.859 
	C 344.633 342.934 344.66 338.008 344.645 333.078 
	C 342.016 333.07 339.391 333.086 336.766 333.074 
	C 336.547 333.094 336.09 332.977 336.18 333.359 
	C 336.191 338.172 336.152 342.98 336.199 347.793 
	C 335.078 347.965 333.926 347.84 332.789 347.859 
	C 332.77 341.887 332.762 335.91 332.797 329.934 
	Z 
	M 352.766 329.937 
	C 353.902 329.953 355.043 329.891 356.18 329.977 
	C 356.141 332.395 356.141 334.816 356.18 337.23 
	C 359.051 337.238 361.93 337.277 364.801 337.215 
	C 364.805 334.789 364.789 332.363 364.809 329.937 
	C 365.945 329.949 367.09 329.91 368.23 329.957 
	C 368.215 335.91 368.211 341.863 368.23 347.816 
	C 367.094 347.937 365.945 347.855 364.805 347.859 
	C 364.793 345.379 364.801 342.902 364.805 340.422 
	C 361.93 340.348 359.047 340.391 356.172 340.398 
	C 356.145 342.871 356.148 345.344 356.172 347.816 
	C 355.047 347.937 353.902 347.852 352.773 347.859 
	C 352.742 341.887 352.754 335.914 352.766 329.937 
	Z 
	M 402.832 329.937 
	C 405.645 329.941 408.461 329.922 411.277 329.945 
	C 412.535 329.949 413.801 330.242 414.883 330.902 
	C 416.293 331.691 417.305 333.262 417.199 334.91 
	C 417.203 336.414 416.223 337.828 414.852 338.422 
	C 415.051 338.695 415.402 338.773 415.68 338.957 
	C 417.012 339.828 417.918 341.395 417.824 343.012 
	C 417.836 344.227 417.215 345.359 416.359 346.187 
	C 415.098 347.379 413.328 347.887 411.625 347.879 
	C 408.695 347.859 405.766 347.898 402.84 347.855 
	C 402.809 341.883 402.82 335.91 402.832 329.937 
	Z 
	M 406.238 332.828 
	C 406.211 334.281 406.207 335.734 406.238 337.187 
	C 407.742 337.234 409.254 337.187 410.762 337.211 
	C 411.379 337.223 412.031 337.215 412.59 336.914 
	C 413.273 336.586 413.824 335.871 413.797 335.09 
	C 413.848 334.289 413.34 333.539 412.641 333.187 
	C 412.02 332.824 411.277 332.812 410.582 332.812 
	C 409.133 332.828 407.684 332.797 406.238 332.828 
	Z 
	M 406.242 340.023 
	C 406.211 341.672 406.203 343.324 406.242 344.977 
	C 408.031 345.004 409.824 344.977 411.613 344.988 
	C 412.449 345.008 413.281 344.668 413.852 344.055 
	C 414.668 343.152 414.594 341.586 413.676 340.785 
	C 412.992 340.137 412.004 339.996 411.102 340.004 
	C 409.48 340.016 407.859 339.98 406.242 340.023 
	Z 
	M 142.504 331.949 
	C 144.059 330.312 146.563 329.719 148.715 330.375 
	C 156.688 332.34 164.645 334.367 172.613 336.355 
	C 174.34 336.711 176.031 337.453 177.242 338.766 
	C 178.336 339.859 179.004 341.312 179.305 342.816 
	C 179.477 344.074 179.402 345.352 179.422 346.617 
	C 179.422 359.461 179.418 372.309 179.422 385.152 
	C 179.418 385.852 179.438 386.559 179.336 387.254 
	C 178.945 389.762 176.855 391.898 174.359 392.352 
	C 173.168 392.648 171.941 392.383 170.777 392.082 
	C 168.195 391.426 165.605 390.793 163.02 390.137 
	C 161.996 389.879 161.16 388.973 161.051 387.914 
	C 160.93 383.777 160.77 379.641 160.645 375.508 
	C 160.609 375.016 160.633 374.523 160.551 374.039 
	C 160.426 368.055 160.152 362.07 159.984 356.086 
	C 159.891 352.051 157.066 348.23 153.223 346.98 
	C 152.781 346.777 152.422 347.43 152.832 347.684 
	C 154.359 348.914 155.414 350.707 155.742 352.641 
	C 155.867 353.73 155.824 354.828 155.828 355.926 
	C 155.828 369.227 155.832 382.523 155.828 395.824 
	C 155.848 397.543 155.164 399.297 153.855 400.441 
	C 152.355 401.934 150.059 402.52 148.012 401.992 
	C 145.16 401.266 142.309 400.551 139.453 399.848 
	C 138.328 399.609 137.492 398.547 137.461 397.406 
	C 137.094 386.73 136.734 376.055 136.363 365.375 
	C 136.109 361.488 133.344 357.887 129.633 356.676 
	C 129.215 356.473 128.813 357.074 129.219 357.355 
	C 131.105 358.863 132.289 361.23 132.234 363.66 
	C 132.238 377.703 132.238 391.75 132.234 405.793 
	C 132.227 408.605 130.051 411.148 127.328 411.734 
	C 126.215 412.02 125.055 411.84 123.961 411.574 
	C 116.453 409.691 108.941 407.832 101.438 405.93 
	C 100.168 405.594 98.8398 405.383 97.668 404.746 
	C 95.7578 403.785 94.3164 401.969 93.7578 399.91 
	C 93.4883 399.094 93.4844 398.223 93.457 397.371 
	C 93.4648 383.492 93.4531 369.617 93.4648 355.738 
	C 93.4102 353.059 95.3438 350.539 97.8984 349.793 
	C 99.043 349.398 100.285 349.461 101.445 349.742 
	C 106.617 351.043 111.801 352.312 116.969 353.629 
	C 117.113 351.937 116.988 350.227 117.031 348.527 
	C 117.082 346.906 116.828 345.184 117.523 343.66 
	C 118.266 341.906 119.84 340.516 121.688 340.023 
	C 122.887 339.691 124.164 339.797 125.355 340.121 
	C 130 341.285 134.641 342.457 139.285 343.605 
	C 139.727 343.719 140.164 343.883 140.629 343.895 
	C 140.625 341.371 140.613 338.844 140.633 336.32 
	C 140.66 334.695 141.297 333.062 142.504 331.949 
	Z 
	M 329.145 368.926 
	C 331.344 368.832 333.57 368.73 335.73 369.227 
	C 339.254 369.836 342.535 371.613 345.078 374.113 
	C 347.219 376.23 348.816 378.891 349.699 381.762 
	C 347.484 382.133 345.281 382.539 343.066 382.871 
	C 342.836 382.895 342.473 383.078 342.395 382.738 
	C 341.129 379.738 338.52 377.344 335.395 376.398 
	C 332.465 375.609 329.215 375.727 326.449 377.055 
	C 325.465 377.645 324.426 378.238 323.77 379.211 
	C 322.453 380.926 322.301 383.324 323.012 385.32 
	C 323.473 386.625 324.473 387.641 325.547 388.477 
	C 326.613 389.316 327.848 389.906 329.102 390.414 
	C 332.879 392.023 336.867 393.094 340.559 394.906 
	C 341.809 395.535 343.098 396.133 344.203 397 
	C 345.605 397.984 346.766 399.273 347.754 400.664 
	C 349.566 403.367 349.984 406.781 349.621 409.957 
	C 349.219 413.527 347.121 416.75 344.336 418.941 
	C 341.715 420.98 338.496 422.145 335.227 422.562 
	C 330.934 423.074 326.453 422.645 322.496 420.824 
	C 317.488 418.605 313.645 414.043 312.188 408.781 
	C 314.422 408.41 316.66 408.07 318.891 407.691 
	C 319.129 407.687 319.477 407.484 319.629 407.785 
	C 321.082 410.504 323.074 413.125 325.934 414.453 
	C 328.883 415.844 332.305 415.961 335.469 415.336 
	C 337.086 414.922 338.691 414.246 339.922 413.086 
	C 342.379 410.762 342.52 406.41 340.164 403.969 
	C 338.969 402.621 337.379 401.695 335.73 401.016 
	C 332.129 399.465 328.324 398.461 324.73 396.891 
	C 321.945 395.777 319.285 394.172 317.391 391.801 
	C 315.039 389.109 314.469 385.324 314.77 381.871 
	C 315.004 378.629 316.535 375.52 318.934 373.332 
	C 321.008 371.348 323.688 370.082 326.465 369.426 
	C 327.328 369.121 328.266 369.18 329.145 368.926 
	Z 
	M 227.578 369.551 
	C 232.719 369.551 237.859 369.551 243 369.551 
	C 244.664 369.543 246.328 369.555 247.988 369.648 
	C 252.277 369.934 256.539 371.531 259.719 374.469 
	C 261.68 376.355 263.191 378.734 263.965 381.352 
	C 265.129 385.68 264.664 390.566 262.18 394.363 
	C 259.762 398.172 255.605 400.641 251.242 401.543 
	C 251.379 401.937 251.672 402.246 251.91 402.586 
	C 256.238 408.531 260.559 414.488 264.895 420.43 
	C 265.227 420.957 265.699 421.406 265.926 421.996 
	C 263.227 422.066 260.523 422 257.82 422.027 
	C 257.547 422.008 257.246 422.078 256.992 421.957 
	C 252.266 415.332 247.52 408.715 242.766 402.105 
	C 240.281 402.012 237.773 402.105 235.281 402.059 
	C 235.211 408.707 235.266 415.355 235.254 422.004 
	C 232.961 422.059 230.668 422.004 228.379 422.027 
	C 228.102 422.035 227.828 422.027 227.563 421.969 
	C 227.59 404.496 227.563 387.023 227.578 369.551 
	Z 
	M 235.266 376.672 
	C 235.246 382.812 235.223 388.961 235.277 395.102 
	C 238.082 395.094 240.887 395.098 243.691 395.098 
	C 245.352 395.09 247.031 395.164 248.672 394.863 
	C 251.906 394.387 254.938 392.227 256.125 389.133 
	C 257.164 386.187 256.789 382.613 254.676 380.223 
	C 253.227 378.555 251.223 377.398 249.063 376.941 
	C 247.238 376.555 245.367 376.668 243.52 376.648 
	C 240.77 376.664 238.016 376.621 235.266 376.672 
	Z 
	M 362.813 372.441 
	C 364.57 372.324 366.344 372.406 368.105 372.398 
	C 368.137 376.125 368.078 379.855 368.133 383.578 
	C 370.988 383.559 373.84 383.578 376.695 383.57 
	C 377.758 383.609 378.84 383.484 379.895 383.641 
	C 379.871 385.738 379.859 387.84 379.902 389.941 
	C 379.527 390.066 379.133 390.02 378.754 390.027 
	C 375.215 390.016 371.676 390.035 368.137 390.016 
	C 368.078 396.656 368.129 403.297 368.113 409.937 
	C 368.105 411.359 368.219 412.91 369.148 414.07 
	C 369.984 415.141 371.398 415.605 372.723 415.609 
	C 375.32 415.629 377.922 415.605 380.52 415.617 
	C 380.348 417.73 380.098 419.84 379.898 421.953 
	C 379.063 422.109 378.211 421.988 377.367 422.027 
	C 375.074 421.988 372.773 422.129 370.488 421.887 
	C 368.352 421.594 366.203 420.914 364.512 419.531 
	C 362.43 417.883 361.27 415.293 360.957 412.695 
	C 360.738 410.695 360.844 408.684 360.82 406.676 
	C 360.816 401.125 360.828 395.574 360.816 390.023 
	C 358.609 389.988 356.391 390.098 354.188 389.969 
	C 354.207 387.855 354.203 385.738 354.191 383.625 
	C 356.391 383.5 358.609 383.602 360.816 383.574 
	C 361.488 379.863 362.152 376.152 362.813 372.441 
	Z 
	M 401.707 383.02 
	C 405.754 382.531 409.969 382.93 413.715 384.602 
	C 416.293 385.805 418.703 387.457 420.535 389.652 
	C 423.09 392.559 424.594 396.297 425.027 400.129 
	C 425.563 405.055 424.688 410.312 421.762 414.398 
	C 419.852 417.312 417.012 419.555 413.852 420.977 
	C 410.254 422.598 406.211 423.012 402.313 422.641 
	C 396.82 422.176 391.5 419.367 388.273 414.863 
	C 387.59 413.82 386.863 412.797 386.375 411.645 
	C 384.637 407.91 384.262 403.672 384.766 399.621 
	C 385.23 396.066 386.691 392.648 388.984 389.891 
	C 392.129 386.074 396.816 383.637 401.707 383.02 
	Z 
	M 402.234 389.746 
	C 400.383 390.086 398.582 390.809 397.102 391.988 
	C 394.496 393.98 392.816 397.047 392.387 400.281 
	C 391.898 403.93 392.379 407.891 394.547 410.957 
	C 396.207 413.445 398.883 415.187 401.809 415.773 
	C 405.199 416.418 408.934 416.078 411.887 414.176 
	C 414.676 412.387 416.641 409.426 417.262 406.172 
	C 417.84 403.035 417.676 399.672 416.383 396.727 
	C 415.461 394.648 413.918 392.883 412.074 391.574 
	C 409.219 389.637 405.582 389.187 402.234 389.746 
	Z 
	M 468.715 383.57 
	C 471.617 382.746 474.695 382.676 477.676 383.039 
	C 479.945 383.402 482.188 384.07 484.195 385.207 
	C 486.07 386.281 487.867 387.555 489.277 389.207 
	C 491.914 392.117 493.559 395.883 494.008 399.781 
	C 494.227 401.422 494.18 403.086 494.141 404.738 
	C 493.434 404.914 492.691 404.777 491.973 404.82 
	C 482.105 404.812 472.242 404.836 462.379 404.812 
	C 462.617 407.699 463.813 410.562 465.914 412.598 
	C 467.695 414.441 470.156 415.523 472.672 415.906 
	C 474.98 416.211 477.363 416.09 479.602 415.426 
	C 481.758 414.758 483.746 413.504 485.207 411.773 
	C 485.469 411.473 485.629 411.078 485.949 410.836 
	C 487.664 411.031 489.363 411.398 491.078 411.645 
	C 491.625 411.734 492.203 411.742 492.727 411.969 
	C 491.305 415.395 488.645 418.262 485.391 420.031 
	C 480.848 422.625 475.367 423.312 470.258 422.379 
	C 468.133 421.973 466.063 421.23 464.191 420.148 
	C 463.32 419.535 462.367 419.023 461.59 418.289 
	C 459.273 416.395 457.523 413.871 456.324 411.145 
	C 455.32 408.687 454.797 406.043 454.762 403.391 
	C 454.688 400.098 455.223 396.746 456.648 393.758 
	C 458.91 388.801 463.453 384.98 468.715 383.57 
	Z 
	M 466.418 392.301 
	C 464.539 394.039 463.273 396.391 462.73 398.879 
	C 468.516 398.883 474.301 398.883 480.09 398.883 
	C 482.129 398.852 484.176 398.941 486.215 398.836 
	C 485.758 396.895 484.91 395.031 483.613 393.504 
	C 482.207 391.895 480.434 390.57 478.391 389.891 
	C 474.352 388.609 469.566 389.355 466.418 392.301 
	Z 
	M 272.035 383.586 
	C 274.461 383.555 276.891 383.566 279.316 383.578 
	C 279.32 391.164 279.301 398.75 279.324 406.336 
	C 279.297 409.133 280.199 412.066 282.309 414.004 
	C 284.719 416.387 288.59 416.781 291.66 415.562 
	C 294.777 414.297 297.012 411.207 297.375 407.879 
	C 297.547 406.16 297.426 404.43 297.465 402.707 
	C 297.449 396.355 297.492 390.008 297.441 383.656 
	C 298.375 383.465 299.348 383.617 300.301 383.57 
	C 301.789 383.578 303.285 383.551 304.777 383.586 
	C 304.777 396.391 304.781 409.203 304.773 422.016 
	C 303.051 422.016 301.316 422.066 299.598 421.988 
	C 298.953 420.145 298.465 418.187 297.871 416.301 
	C 297.461 416.648 297.25 417.16 296.926 417.582 
	C 295.09 419.977 292.418 421.723 289.484 422.426 
	C 285.555 423.262 281.219 422.523 278.012 420.031 
	C 275.598 418.191 273.82 415.551 272.914 412.664 
	C 271.992 409.969 272.012 407.078 272.023 404.266 
	C 272.035 397.371 272.012 390.48 272.035 383.586 
	Z 
	M 432.996 383.609 
	C 434.758 383.527 436.531 383.57 438.297 383.586 
	C 438.82 385.359 439.258 387.164 439.836 388.922 
	L 439.957 388.91 
	C 440.668 387.762 441.52 386.687 442.598 385.859 
	C 443.758 384.977 445.109 384.355 446.516 383.98 
	C 448.27 383.543 450.094 383.547 451.895 383.578 
	C 452.078 385.895 452.344 388.207 452.453 390.527 
	C 450.262 390.605 448.043 390.379 445.879 390.824 
	C 444.289 391.152 442.781 392.047 441.891 393.43 
	C 440.578 395.195 440.285 397.473 440.285 399.613 
	C 440.301 407.059 440.258 414.504 440.305 421.945 
	C 439.641 422.109 438.953 421.988 438.281 422.027 
	C 436.555 422.016 434.824 422.047 433.102 422.012 
	L 433.004 421.934 
	C 432.988 409.16 433.004 396.383 432.996 383.609 
	"/>
</g>
</g>
</svg>
